<svg width="66" height="66" viewBox="0 0 66 66" fill="none" xmlns="http://www.w3.org/2000/svg">
<circle cx="33" cy="33" r="33" fill="#0C9AD6" fill-opacity="0.1"/>
<path d="M42.3536 27.7765L37.8214 29.7854V27.3747C37.8214 26.9485 37.6521 26.5397 37.3507 26.2383C37.0493 25.9369 36.6405 25.7676 36.2143 25.7676H24.1607C23.7345 25.7676 23.3257 25.9369 23.0243 26.2383C22.7229 26.5397 22.5536 26.9485 22.5536 27.3747V38.6247C22.5536 39.0509 22.7229 39.4598 23.0243 39.7611C23.3257 40.0625 23.7345 40.2319 24.1607 40.2319H36.2143C36.6405 40.2319 37.0493 40.0625 37.3507 39.7611C37.6521 39.4598 37.8214 39.0509 37.8214 38.6247V36.214L42.3536 38.2229C42.4757 38.27 42.6077 38.2867 42.7377 38.2712C42.8677 38.2557 42.9921 38.2088 43.0998 38.1342C43.2075 38.0598 43.2954 37.9602 43.3558 37.844C43.4162 37.7278 43.4474 37.5985 43.4464 37.4676V28.5319C43.4474 28.4009 43.4162 28.2717 43.3558 28.1555C43.2954 28.0393 43.2075 27.9396 43.0998 27.8652C42.9921 27.7907 42.8677 27.7437 42.7377 27.7282C42.6077 27.7128 42.4757 27.7294 42.3536 27.7765Z" stroke="#0C9AD6" stroke-width="1.5" stroke-linecap="round" stroke-linejoin="round"/>
</svg>
