<svg width="24" height="24" viewBox="0 0 24 24" fill="none" xmlns="http://www.w3.org/2000/svg">
<path d="M1.55371 18.4291C1.55371 19.3168 2.27205 20.0363 3.15817 20.0363H20.8422C21.7282 20.0363 22.4466 19.3168 22.4466 18.4291V15.1602C21.0575 14.783 20.0357 13.5113 20.0357 12.0006C20.0357 10.4898 21.0575 9.21808 22.4466 8.84096V5.57199C22.4466 4.68439 21.7282 3.96484 20.8422 3.96484H3.15817C2.27206 3.96484 1.55371 4.68438 1.55371 5.57199V8.83389C2.95626 9.20198 3.99104 10.4802 3.99104 12.0006C3.99104 13.5209 2.95626 14.7991 1.55371 15.1672V18.4291Z" stroke="black" stroke-width="1.5" stroke-linecap="round" stroke-linejoin="round"/>
<path d="M8.01562 16.0181L16.0513 7.98242" stroke="black" stroke-width="1.5" stroke-linecap="round" stroke-linejoin="round"/>
<path d="M8.8192 9.58956C9.26299 9.58956 9.62277 9.22979 9.62277 8.78599C9.62277 8.3422 9.26299 7.98242 8.8192 7.98242C8.3754 7.98242 8.01562 8.3422 8.01562 8.78599C8.01562 9.22979 8.3754 9.58956 8.8192 9.58956Z" stroke="black" stroke-width="1.5" stroke-linecap="round" stroke-linejoin="round"/>
<path d="M15.2469 16.0193C15.6907 16.0193 16.0505 15.6595 16.0505 15.2157C16.0505 14.7719 15.6907 14.4121 15.2469 14.4121C14.8031 14.4121 14.4434 14.7719 14.4434 15.2157C14.4434 15.6595 14.8031 16.0193 15.2469 16.0193Z" stroke="black" stroke-width="1.5" stroke-linecap="round" stroke-linejoin="round"/>
</svg>
