<svg width="24" height="24" viewBox="0 0 24 24" fill="none" xmlns="http://www.w3.org/2000/svg">
<g clip-path="url(#clip0_511_9390)">
<path d="M14.1717 9.27735C14.0894 9.04446 13.9623 8.83268 13.8009 8.65235C13.4576 8.26875 12.9587 8.02734 12.4033 8.02734H10.952C10.0277 8.02734 9.27832 8.77667 9.27832 9.70104C9.27832 10.4876 9.82599 11.168 10.5944 11.3361L12.804 11.8194C13.6648 12.0077 14.2784 12.7705 14.2784 13.6517C14.2784 14.6872 13.4389 15.5274 12.4033 15.5274H11.1533C10.3369 15.5274 9.64242 15.0056 9.38502 14.2774" stroke="black" stroke-width="1.5" stroke-linecap="round" stroke-linejoin="round"/>
<path d="M11.7783 8.02737V6.15234" stroke="black" stroke-width="1.5" stroke-linecap="round" stroke-linejoin="round"/>
<path d="M11.7783 17.4023V15.5273" stroke="black" stroke-width="1.5" stroke-linecap="round" stroke-linejoin="round"/>
<path d="M3.96191 22.4436V18.4258H7.97977" stroke="black" stroke-width="1.5" stroke-linecap="round" stroke-linejoin="round"/>
<path d="M22.267 10.0762C23.2666 15.3925 20.0133 20.6631 14.7016 22.0863C10.6363 23.1756 6.48825 21.7103 3.96191 18.6744" stroke="black" stroke-width="1.5" stroke-linecap="round" stroke-linejoin="round"/>
<path d="M1.73369 13.9214C0.733977 8.60509 3.98734 3.33453 9.299 1.91128C13.3641 0.822046 17.5118 2.28707 20.0383 5.32253" stroke="black" stroke-width="1.5" stroke-linecap="round" stroke-linejoin="round"/>
<path d="M20.0384 1.55469V5.57255H16.0205" stroke="black" stroke-width="1.5" stroke-linecap="round" stroke-linejoin="round"/>
</g>
<defs>
<clipPath id="clip0_511_9390">
<rect width="24" height="24" fill="white"/>
</clipPath>
</defs>
</svg>
