<svg width="53" height="53" viewBox="0 0 53 53" fill="none" xmlns="http://www.w3.org/2000/svg">
<path d="M34.2089 7.61153C28.5127 7.4926 22.6349 10.7601 21.0262 18.1151C14.4661 15.8805 8.54456 20.2935 9.158 27.348C7.42831 28.0465 5.94719 29.2465 4.90527 30.7938C3.86335 32.3411 3.30829 34.1647 3.31154 36.0301C3.31154 41.2193 7.49295 45.3945 12.6822 45.3945H24.0621L24.0496 34.7156L21.383 35.6858C19.4425 36.5183 18.0153 34.0771 19.6741 32.556L24.7256 27.6548C25.8774 26.503 27.2545 26.6344 28.2748 27.6548L33.3263 32.5623C34.9851 34.0771 33.5516 36.5183 31.6174 35.6858L28.9508 34.7156V45.3945H40.312C45.5012 45.3945 49.6764 41.2193 49.6764 36.0301C49.6764 32.2117 47.4104 28.9442 44.1491 27.4857C50.4713 15.1543 42.5342 7.77428 34.2089 7.61153Z" fill="#75B5FF"/>
<path d="M34.2087 7.60547C33.8957 7.60547 33.5452 7.61173 33.226 7.62425C25.9523 19.0918 37.1946 27.4797 44.1552 27.4797C50.4774 15.1483 42.534 7.77448 34.2087 7.60547Z" fill="#488BFF"/>
</svg>
