<svg width="66" height="66" viewBox="0 0 66 66" fill="none" xmlns="http://www.w3.org/2000/svg">
<circle cx="33" cy="33" r="33" fill="#42A5F5" fill-opacity="0.1"/>
<path d="M19 22.735C19 22.2536 19.1736 21.7883 19.489 21.4246C19.8044 21.0609 20.2404 20.8231 20.717 20.755L33 19V47L20.717 45.245C20.2404 45.1769 19.8044 44.9391 19.489 44.5754C19.1736 44.2117 19 43.7464 19 43.265V22.735Z" fill="#42A5F5"/>
<path fill-rule="evenodd" clip-rule="evenodd" d="M34 19C34 18.8568 33.9692 18.7152 33.9098 18.5849C33.8503 18.4546 33.7635 18.3386 33.6554 18.2447C33.5472 18.1508 33.4201 18.0813 33.2827 18.0408C33.1453 18.0003 33.0008 17.9898 32.859 18.01L20.576 19.765C19.861 19.8671 19.2069 20.2236 18.7337 20.7692C18.2605 21.3148 18 22.0128 18 22.735V43.265C18 43.9872 18.2605 44.6852 18.7337 45.2308C19.2069 45.7764 19.861 46.1329 20.576 46.235L32.859 47.99C33.0008 48.0102 33.1453 47.9997 33.2827 47.9592C33.4201 47.9187 33.5472 47.8492 33.6554 47.7553C33.7635 47.6614 33.8503 47.5454 33.9098 47.4151C33.9692 47.2848 34 47.1432 34 47V46H41C41.7956 46 42.5587 45.6839 43.1213 45.1213C43.6839 44.5587 44 43.7956 44 43V41C44 40.7348 43.8946 40.4804 43.7071 40.2929C43.5196 40.1053 43.2652 40 43 40C42.7348 40 42.4804 40.1053 42.2929 40.2929C42.1054 40.4804 42 40.7348 42 41V43C42 43.2652 41.8946 43.5196 41.7071 43.7071C41.5196 43.8946 41.2652 44 41 44H34V22H41C41.2652 22 41.5196 22.1053 41.7071 22.2929C41.8946 22.4804 42 22.7348 42 23V25C42 25.2652 42.1054 25.5196 42.2929 25.7071C42.4804 25.8946 42.7348 26 43 26C43.2652 26 43.5196 25.8946 43.7071 25.7071C43.8946 25.5196 44 25.2652 44 25V23C44 22.2043 43.6839 21.4413 43.1213 20.8787C42.5587 20.3161 41.7956 20 41 20H34V19ZM32 21V20.153L20.859 21.745C20.6206 21.7789 20.4025 21.8978 20.2447 22.0796C20.0869 22.2615 20 22.4942 20 22.735V43.265C20 43.5058 20.0869 43.7385 20.2447 43.9203C20.4025 44.1022 20.6206 44.221 20.859 44.255L32 45.847V45V21Z" fill="#1976D2"/>
<path fill-rule="evenodd" clip-rule="evenodd" d="M43.707 28.2929C43.5184 28.1108 43.2658 28.01 43.0036 28.0122C42.7414 28.0145 42.4906 28.1197 42.3052 28.3051C42.1198 28.4905 42.0146 28.7413 42.0123 29.0035C42.01 29.2657 42.1108 29.5183 42.293 29.7069L44.586 31.9999H37C36.7348 31.9999 36.4804 32.1053 36.2929 32.2928C36.1054 32.4803 36 32.7347 36 32.9999C36 33.2651 36.1054 33.5195 36.2929 33.707C36.4804 33.8946 36.7348 33.9999 37 33.9999H44.586L42.293 36.2929C42.1108 36.4815 42.01 36.7341 42.0123 36.9963C42.0146 37.2585 42.1198 37.5093 42.3052 37.6947C42.4906 37.8801 42.7414 37.9853 43.0036 37.9876C43.2658 37.9899 43.5184 37.8891 43.707 37.7069L47.705 33.7089C47.7986 33.6164 47.873 33.5062 47.9238 33.3847C47.9746 33.2633 48.0009 33.133 48.001 33.0013C48.0012 32.8697 47.9753 32.7393 47.9249 32.6177C47.8744 32.4961 47.8004 32.3857 47.707 32.2929L43.707 28.2929Z" fill="#1976D2"/>
<path fill-rule="evenodd" clip-rule="evenodd" d="M30 31C30.2652 31 30.5196 31.1054 30.7071 31.2929C30.8946 31.4804 31 31.7348 31 32V34C31 34.2652 30.8946 34.5196 30.7071 34.7071C30.5196 34.8946 30.2652 35 30 35C29.7348 35 29.4804 34.8946 29.2929 34.7071C29.1054 34.5196 29 34.2652 29 34V32C29 31.7348 29.1054 31.4804 29.2929 31.2929C29.4804 31.1054 29.7348 31 30 31Z" fill="#E3F2FD"/>
</svg>
