<svg width="66" height="66" viewBox="0 0 66 66" fill="none" xmlns="http://www.w3.org/2000/svg">
<circle cx="33" cy="33" r="33" fill="#EB5757" fill-opacity="0.1"/>
<path d="M23.3574 27.375H42.6431" stroke="#EB5757" stroke-width="1.5" stroke-linecap="round" stroke-linejoin="round"/>
<path d="M25.7686 27.375H40.2328V41.8393C40.2328 42.2655 40.0634 42.6744 39.7621 42.9757C39.4608 43.277 39.0519 43.4464 38.6257 43.4464H27.3757C26.9495 43.4464 26.5407 43.277 26.2393 42.9757C25.9379 42.6744 25.7686 42.2655 25.7686 41.8393V27.375Z" stroke="#EB5757" stroke-width="1.5" stroke-linecap="round" stroke-linejoin="round"/>
<path d="M28.9824 27.3751V26.5716C28.9824 25.506 29.4057 24.484 30.1592 23.7305C30.9127 22.977 31.9347 22.5537 33.0003 22.5537C34.0659 22.5537 35.0878 22.977 35.8413 23.7305C36.5948 24.484 37.0181 25.506 37.0181 26.5716V27.3751" stroke="#EB5757" stroke-width="1.5" stroke-linecap="round" stroke-linejoin="round"/>
<path d="M30.5898 32.1987V38.6298" stroke="#EB5757" stroke-width="1.5" stroke-linecap="round" stroke-linejoin="round"/>
<path d="M35.4111 32.1987V38.6298" stroke="#EB5757" stroke-width="1.5" stroke-linecap="round" stroke-linejoin="round"/>
</svg>
